<svg xmlns="http://www.w3.org/2000/svg" viewBox="0 0 100 100">
  <rect width="100" height="100" rx="16" fill="#000000"/>
  <path transform="translate(27.699 18.525) scale(0.37995)" fill="#ffffff" d="M58.62,164.12c-8.46-.21-16.71-1.75-24.75-4.64-8.04-2.89-15.06-6.81-21.04-11.76-5.98-4.95-10.26-10.57-12.84-16.86l18.72-8.04c1.65,4.02,4.69,7.73,9.13,11.14,4.54,3.3,9.69,5.98,15.47,8.04,5.77,1.96,11.5,2.94,17.17,2.94,6.29,0,12.17-1.03,17.63-3.09,5.46-2.06,9.9-5,13.3-8.82,3.51-3.92,5.26-8.51,5.26-13.77,0-5.67-1.86-10.11-5.57-13.3-3.71-3.3-8.4-5.88-14.08-7.73-5.67-1.96-11.5-3.82-17.48-5.57-10.93-2.99-20.57-6.29-28.92-9.9-8.35-3.61-14.9-8.2-19.64-13.77-4.64-5.67-6.96-12.94-6.96-21.81,0-9.38,2.63-17.48,7.89-24.28,5.36-6.91,12.32-12.22,20.88-15.93,8.66-3.82,17.89-5.72,27.69-5.72,12.58,0,24.03,2.73,34.34,8.2,10.41,5.47,17.94,12.73,22.58,21.81l-17.48,10.36c-1.86-4.23-4.8-7.89-8.82-10.98-4.02-3.09-8.61-5.52-13.77-7.27-5.05-1.75-10.21-2.68-15.47-2.78-6.6-.1-12.74.88-18.41,2.94-5.67,1.96-10.26,4.9-13.77,8.82-3.4,3.92-5.1,8.71-5.1,14.38s1.7,10,5.1,12.99c3.4,2.89,7.99,5.26,13.77,7.11,5.88,1.75,12.48,3.82,19.8,6.19,9.38,2.99,18.2,6.39,26.45,10.21,8.25,3.82,14.9,8.56,19.95,14.23,5.05,5.67,7.53,12.84,7.42,21.5,0,9.28-2.78,17.38-8.35,24.28-5.57,6.91-12.79,12.22-21.65,15.93-8.87,3.61-18.35,5.26-28.46,4.95Z"/>
</svg>
